<svg xmlns="http://www.w3.org/2000/svg" xmlns:xlink="http://www.w3.org/1999/xlink" viewBox="0 0 392.53 45.02"><defs><clipPath id="clip-path" transform="translate(-399.91 -322.59)"><rect width="1192.38" height="690.19" style="fill:none"/></clipPath><clipPath id="clip-path-2" transform="translate(-399.91 -322.59)"><rect width="1192.38" height="690.19" style="fill:none"/></clipPath></defs><g><g><g style="clip-path:url(#clip-path)"><g style="clip-path:url(#clip-path-2)"><path d="M472.79,351.9a15.24,15.24,0,0,1-15.24,15.25H436.39l-.93,0a22.28,22.28,0,1,1,21.65-30.47h.44a15.24,15.24,0,0,1,15.24,15.24" transform="translate(-399.91 -322.59)" style="fill:rgb(18, 193, 196)"/><path d="M413.94,360.13a7,7,0,1,1-7-7,7,7,0,0,1,7,7" transform="translate(-399.91 -322.59)" style="fill:rgb(18, 193, 196)"/><path d="M522,365.78a1,1,0,0,1-.92,1.37h-2.37a1.27,1.27,0,0,1-.85-.49,5.74,5.74,0,0,1-.85-1.21q-.39-.72-.72-1.47c-.22-.5-.39-1-.52-1.34l-3-7.48a.65.65,0,0,0-.62-.42H493.18a.68.68,0,0,0-.62.42l-2.9,7.48c-.17.35-.37.78-.59,1.31a13.12,13.12,0,0,1-.75,1.5,8.44,8.44,0,0,1-.85,1.21,1.21,1.21,0,0,1-.88.49h-2.31a1,1,0,0,1-.92-1.37l16.37-40a2,2,0,0,1,1.85-1.24h2.22a2,2,0,0,1,1.85,1.25Zm-11.18-14.44a.39.39,0,0,0,.36-.53L506,337.76q-.86-2-1.77-4.28c-.42-1-.79-2.06-1.13-3.08a.45.45,0,0,0-.86,0c-.34,1.05-.72,2.1-1.14,3.14-.61,1.51-1.22,2.91-1.83,4.22l-5.08,13.05a.39.39,0,0,0,.36.53Z" transform="translate(-399.91 -322.59)" style="fill:rgb(18, 193, 196)"/><path d="M531.59,343.63a13.12,13.12,0,0,1,3.46-5.42,8,8,0,0,1,5.49-1.89,10.14,10.14,0,0,1,1.86.16,4.64,4.64,0,0,1,.64.17,1.29,1.29,0,0,1,.84,1.41l-.27,2.24q-.2.66-.72.66a4.46,4.46,0,0,1-1.21-.23,7.57,7.57,0,0,0-6.82,1.63,15,15,0,0,0-3,5.52v18a1.26,1.26,0,0,1-1.25,1.26h-2a1.27,1.27,0,0,1-1.26-1.26V338.1a1.26,1.26,0,0,1,1.26-1.26h1.23a1.36,1.36,0,0,1,1,.3,1.9,1.9,0,0,1,.39.88Z" transform="translate(-399.91 -322.59)" style="fill:rgb(18, 193, 196)"/><path d="M574.12,337.92,562.31,366.3a1.37,1.37,0,0,1-1.27.85h-2.15a1.4,1.4,0,0,1-1.27-.85l-11.74-28.38a.78.78,0,0,1,.72-1.08h2.49a1.3,1.3,0,0,1,.88.3,1.58,1.58,0,0,1,.5.62L559,359.11a23.52,23.52,0,0,1,1.05,3.6,9.4,9.4,0,0,1,.42-1.8c.2-.59.4-1.19.62-1.8l8.56-21.35a1.31,1.31,0,0,1,1.37-.92h2.36a.79.79,0,0,1,.72,1.08" transform="translate(-399.91 -322.59)" style="fill:rgb(18, 193, 196)"/><path d="M579.85,342.46a2,2,0,0,1,.47-2.47,17.23,17.23,0,0,1,4-2.46,15.62,15.62,0,0,1,6.27-1.21c3.4,0,6,1,7.68,3.1a12.41,12.41,0,0,1,2.57,8.2v17.63a1.89,1.89,0,0,1-1.89,1.9,2.33,2.33,0,0,1-1.08-.2,1.33,1.33,0,0,1-.55-.85l-.46-3.46a26,26,0,0,1-2.35,2.09,15.64,15.64,0,0,1-2.45,1.57,11.57,11.57,0,0,1-2.78,1,16.22,16.22,0,0,1-3.33.32,11.41,11.41,0,0,1-3.23-.45,7.38,7.38,0,0,1-2.68-1.44,7.2,7.2,0,0,1-1.83-2.45,8.5,8.5,0,0,1-.68-3.56,6.51,6.51,0,0,1,1-3.49,9.06,9.06,0,0,1,3.3-2.94,21,21,0,0,1,5.85-2.06,47,47,0,0,1,8.75-.91v-2.68a9.1,9.1,0,0,0-1.63-5.85,5.81,5.81,0,0,0-4.77-2,9.33,9.33,0,0,0-3.43.56,12.84,12.84,0,0,0-2.38,1.2c-.66.44-1.22.84-1.7,1.21a2.25,2.25,0,0,1-1.31.56,1.55,1.55,0,0,1-1.44-.85M596.51,353q-7.77.33-11.2,2t-3.43,4.47a4.65,4.65,0,0,0,1.6,4,6.19,6.19,0,0,0,3.82,1.2,9.91,9.91,0,0,0,5.23-1.27,19.11,19.11,0,0,0,4-3.3Z" transform="translate(-399.91 -322.59)" style="fill:rgb(18, 193, 196)"/><path d="M613.75,341.74a16.81,16.81,0,0,1,4.57-3.95,11.56,11.56,0,0,1,5.88-1.47c3.4,0,5.93,1,7.61,3.13a13.13,13.13,0,0,1,2.51,8.43V366.1a1,1,0,0,1-1,1h-2.35a1,1,0,0,1-1-1V347.88a9.18,9.18,0,0,0-1.73-5.94,6.24,6.24,0,0,0-5.19-2.16,9.17,9.17,0,0,0-4.87,1.34,15.74,15.74,0,0,0-4,3.62V366.1a1,1,0,0,1-1.05,1h-2.41a1,1,0,0,1-1-1V337.91a1.07,1.07,0,0,1,1.07-1.07h1.48a1.16,1.16,0,0,1,1.3,1Z" transform="translate(-399.91 -322.59)" style="fill:rgb(18, 193, 196)"/><path d="M673.32,357.15l.29,0a.46.46,0,0,1,.29,0,1.66,1.66,0,0,0,.36.2.66.66,0,0,1,.3.26l2.41,2.47a1.23,1.23,0,0,1,0,1.7,17,17,0,0,1-5.82,4.16,23.31,23.31,0,0,1-9.27,1.66,22.26,22.26,0,0,1-8.72-1.63,19.24,19.24,0,0,1-6.63-4.54,19.77,19.77,0,0,1-4.22-6.95,25.87,25.87,0,0,1-1.46-8.89,25.29,25.29,0,0,1,1.53-8.88,20.69,20.69,0,0,1,4.34-7.08,19.83,19.83,0,0,1,6.8-4.67,22.08,22.08,0,0,1,8.81-1.7,21.71,21.71,0,0,1,8.43,1.53,20.39,20.39,0,0,1,5.48,3.37,1.23,1.23,0,0,1,.21,1.66l-1.05,1.44c-.44.59-.8,1-1.08,1.37a2.84,2.84,0,0,1-.75.65,1.59,1.59,0,0,1-.72.17,3.19,3.19,0,0,1-1.37-.4c-.83-.56-1.59-1-2.29-1.43a13.44,13.44,0,0,0-2.12-1,11.29,11.29,0,0,0-2.22-.56,17.81,17.81,0,0,0-2.52-.16,12.77,12.77,0,0,0-5.58,1.17,12.53,12.53,0,0,0-4.18,3.24,13.58,13.58,0,0,0-2.61,5,21.56,21.56,0,0,0-.89,6.3,19.41,19.41,0,0,0,1,6.57,13.87,13.87,0,0,0,2.81,4.8,11.77,11.77,0,0,0,4.24,3,13.54,13.54,0,0,0,5.26,1,20.67,20.67,0,0,0,4.8-.49,9.44,9.44,0,0,0,4-2.19,10.32,10.32,0,0,1,2.09-1.11" transform="translate(-399.91 -322.59)" style="fill:rgb(18, 193, 196)"/><path d="M689.64,323.67v42.48a1,1,0,0,1-1,1H683.2a1,1,0,0,1-1-1V323.67a1,1,0,0,1,1-1h5.44a1,1,0,0,1,1,1" transform="translate(-399.91 -322.59)" style="fill:rgb(18, 193, 196)"/><path d="M710.61,335.8a17,17,0,0,1,6.27,1.11,13.53,13.53,0,0,1,4.8,3.16,14.09,14.09,0,0,1,3.07,5,19,19,0,0,1,1.08,6.6,19.29,19.29,0,0,1-1.08,6.63,14,14,0,0,1-3.07,5,13.53,13.53,0,0,1-4.8,3.16,18.26,18.26,0,0,1-12.54,0,13.39,13.39,0,0,1-7.94-8.19,19.29,19.29,0,0,1-1.08-6.63,19,19,0,0,1,1.08-6.6,13.44,13.44,0,0,1,7.94-8.16,16.91,16.91,0,0,1,6.27-1.11m0,26.25a6.59,6.59,0,0,0,5.78-2.64c1.24-1.77,1.86-4.32,1.86-7.68s-.62-6-1.86-7.77a7.57,7.57,0,0,0-11.56,0q-1.86,2.69-1.86,7.77c0,3.36.62,5.91,1.86,7.68a6.59,6.59,0,0,0,5.78,2.64" transform="translate(-399.91 -322.59)" style="fill:rgb(18, 193, 196)"/><path d="M758.15,337.29v29.86h-4.44a1.82,1.82,0,0,1-2-1.31l-.45-2.68a13.73,13.73,0,0,1-4.18,3.27,12.19,12.19,0,0,1-5.49,1.17c-3.4,0-6-1.07-7.74-3.23a12.83,12.83,0,0,1-2.64-8.39V337.29a1,1,0,0,1,1-1h5.43a1,1,0,0,1,1,1V356a6.72,6.72,0,0,0,1.3,4.47,4.93,4.93,0,0,0,4,1.54,9.11,9.11,0,0,0,6.85-3.4v-21.3a1,1,0,0,1,1-1h5.43a1,1,0,0,1,1,1" transform="translate(-399.91 -322.59)" style="fill:rgb(18, 193, 196)"/><path d="M792.44,323.73l-.06,41.77a1.65,1.65,0,0,1-1.64,1.65h-2.87a1.82,1.82,0,0,1-2-1.31l-.52-3.07a15,15,0,0,1-4.31,3.53,11.94,11.94,0,0,1-5.75,1.3,10.33,10.33,0,0,1-4.64-1,10.2,10.2,0,0,1-3.59-3,15.16,15.16,0,0,1-2.35-4.93,24.37,24.37,0,0,1-.85-6.79,20.59,20.59,0,0,1,1-6.34,16.15,16.15,0,0,1,2.64-5.09,12.31,12.31,0,0,1,4.15-3.4,12.12,12.12,0,0,1,5.52-1.24,11.35,11.35,0,0,1,4.47.79,9.78,9.78,0,0,1,3.3,2.28l.12-15.08a1.07,1.07,0,0,1,1.07-1.05h5.26a1.06,1.06,0,0,1,1.06,1.06m-7.51,20.36a7.18,7.18,0,0,0-2.77-2.25,8,8,0,0,0-3.17-.62,6.51,6.51,0,0,0-5.49,2.58c-1.3,1.72-2,4.38-2,8s.57,6.3,1.7,7.8a5.48,5.48,0,0,0,4.64,2.26,7.88,7.88,0,0,0,4-.95,10.49,10.49,0,0,0,3.1-2.84Z" transform="translate(-399.91 -322.59)" style="fill:rgb(18, 193, 196)"/></g></g></g></g></svg>